<svg width="24" height="24" viewBox="0 0 24 24" fill="none" xmlns="http://www.w3.org/2000/svg">
<path d="M22.5562 12.2409C22.5562 11.3365 22.4828 10.6766 22.324 9.99219H11.9971V14.074H18.0588C17.9366 15.0884 17.2766 16.6161 15.8101 17.6426L15.7895 17.7793L19.0547 20.3088L19.2809 20.3314C21.3585 18.4126 22.5562 15.5895 22.5562 12.2409Z" fill="#4285F4"/>
<path d="M11.9988 23C14.9685 23 17.4616 22.0222 19.2826 20.3358L15.8118 17.647C14.883 18.2948 13.6364 18.7469 11.9988 18.7469C9.09012 18.7469 6.62145 16.8283 5.74143 14.1763L5.61244 14.1872L2.21725 16.8148L2.17285 16.9382C3.98158 20.5312 7.69684 23 11.9988 23Z" fill="#34A853"/>
<path d="M5.74179 14.1771C5.5096 13.4927 5.37521 12.7594 5.37521 12.0017C5.37521 11.2439 5.5096 10.5107 5.72958 9.82628L5.72343 9.68052L2.28569 7.01074L2.17321 7.06424C1.42775 8.55525 1 10.2296 1 12.0017C1 13.7737 1.42775 15.448 2.17321 16.939L5.74179 14.1771Z" fill="#FBBC05"/>
<path d="M11.9988 5.25296C14.0641 5.25296 15.4573 6.14511 16.2517 6.89066L19.3559 3.85977C17.4495 2.0877 14.9685 1 11.9988 1C7.69684 1 3.98158 3.46867 2.17285 7.06169L5.72922 9.82373C6.62145 7.17172 9.09012 5.25296 11.9988 5.25296Z" fill="#EB4335"/>
</svg>
